# xmcd
#
# Track frame offsets: 
#        150
#        25212
#        49510
#        70785
#        83377
#        100062
#        112768
#        135848
#        152613
#        168583
#        180105
#
# Disc length: 2822 seconds
#
# Revision: 3
# Processed by: cddbd v1.5.2PL0 Copyright (c) Steve Scherf et al.
# Submitted via: ExactAudioCopy v0.99pb5
#
DISCID=6c0b040b
DTITLE=JohnyWinter - Second Winter
DYEAR=1969
DGENRE=
TTITLE0=Memory pain
TTITLE1=I'm not shure
TTITLE2=The good love
TTITLE3=Slippin' and slidin'
TTITLE4=Miss Ann
TTITLE5=Johnny B Goode
TTITLE6=Highway 61 Revisited
TTITLE7=I love everybody
TTITLE8=Hustled down in Texas
TTITLE9=I hate everybody
TTITLE10=Fast Life Rider
EXTD=
EXTT0=
EXTT1=
EXTT2=
EXTT3=
EXTT4=
EXTT5=
EXTT6=
EXTT7=
EXTT8=
EXTT9=
EXTT10=
PLAYORDER=
